<?xml version="1.0" encoding="UTF-8"?>
<svg version="1.1" xmlns="http://www.w3.org/2000/svg" width="500" height="500">
<path d="M0 0 C165 0 330 0 500 0 C500 165 500 330 500 500 C335 500 170 500 0 500 C0 335 0 170 0 0 Z " fill="#FEFEFE" transform="translate(0,0)"/>
<path d="M0 0 C2.10873262 0.77001166 4.21845915 1.5372121 6.32878113 2.30285645 C8.23113641 2.99456404 10.13090477 3.69337415 12.03051758 4.39257812 C14.41920272 5.23049289 16.72039267 5.95729005 19.1875 6.5 C19.3781823 22.95315876 13.0739896 37.38938036 5.6875 51.8125 C5.24937988 52.6775415 4.81125977 53.54258301 4.35986328 54.43383789 C0.03769467 62.54048526 -5.29149335 68.14210472 -13.375 72.5 C-14.44878906 73.098125 -15.52257812 73.69625 -16.62890625 74.3125 C-20.32863193 75.69252038 -22.05676891 75.60907495 -25.8125 74.5 C-28.375 73.265625 -28.375 73.265625 -30.8125 71.75 C-31.616875 71.26015625 -32.42125 70.7703125 -33.25 70.265625 C-47.47802926 60.46216582 -56.71433456 39.05741212 -60.8125 22.5 C-61.7062601 17.52838262 -62.29095235 12.52332733 -62.8125 7.5 C-55.75529563 4.22453667 -48.57614026 1.45452429 -41.23779297 -1.12915039 C-39.95141794 -1.58572707 -38.66785327 -2.05029829 -37.38720703 -2.52270508 C-22.60969301 -7.97052362 -14.2194851 -5.25842716 0 0 Z " fill="#0173C0" transform="translate(121.8125,207.5)"/>
<path d="M0 0 C0.94215363 0.31966736 1.88430725 0.63933472 2.85501099 0.96868896 C4.83460183 1.64426215 6.81292812 2.32355094 8.79003906 3.00634766 C11.82512708 4.04852822 14.8690868 5.06135232 17.9140625 6.07421875 C19.83915762 6.73518789 21.76365944 7.39788812 23.6875 8.0625 C24.60095184 8.36166321 25.51440369 8.66082642 26.45553589 8.96905518 C28.74821118 9.78059386 30.85072008 10.56123013 32.9453125 11.796875 C37.66106756 22.64018779 27.52770116 45.01875109 23.40063477 55.53466797 C20.50368061 62.67209126 17.30693591 69.4152667 12.9453125 75.796875 C12.3265625 76.704375 11.7078125 77.611875 11.0703125 78.546875 C4.21192308 85.80869909 -5.64038316 92.39756001 -15.84375 92.98828125 C-25.04124389 92.19203178 -34.29729457 84.85217233 -40.6171875 78.546875 C-48.92776691 68.32447216 -53.32895034 54.65954228 -57.4921875 42.359375 C-57.82210693 41.39 -58.15202637 40.420625 -58.49194336 39.421875 C-61.46025561 30.29576987 -63.20336245 21.41442598 -63.0546875 11.796875 C-56.98586001 9.67866403 -50.9169197 7.56077654 -44.84790039 5.44311523 C-42.78277013 4.72248689 -40.71766582 4.00178415 -38.65258789 3.28100586 C-35.68642875 2.24573581 -32.72017674 1.21073222 -29.75390625 0.17578125 C-28.8288176 -0.14716415 -27.90372894 -0.47010956 -26.9506073 -0.80284119 C-26.08994156 -1.10307693 -25.22927582 -1.40331268 -24.3425293 -1.71264648 C-23.58530075 -1.97689926 -22.8280722 -2.24115204 -22.04789734 -2.51341248 C-14.09888174 -5.26401881 -7.70821588 -2.62777151 0 0 Z M-26.69921875 6.5 C-27.91480721 6.91859283 -27.91480721 6.91859283 -29.154953 7.34564209 C-30.85848982 7.93602758 -32.56031923 8.5313604 -34.26049805 9.13134766 C-36.87001394 10.04786771 -39.48795913 10.93658962 -42.10742188 11.82421875 C-43.76360339 12.4019786 -45.4192238 12.98134995 -47.07421875 13.5625 C-47.85956497 13.82621399 -48.64491119 14.08992798 -49.45405579 14.3616333 C-51.88559249 15.19539837 -51.88559249 15.19539837 -55.0546875 16.796875 C-58.90113975 27.25807621 -51.22412159 42.2068086 -47.0546875 51.796875 C-45.42601249 55.27779414 -43.70751186 58.70243277 -41.9296875 62.109375 C-41.52234375 62.89127197 -41.115 63.67316895 -40.6953125 64.47875977 C-37.01587809 71.29684075 -33.25172236 76.4479081 -26.4921875 80.546875 C-25.09806641 81.40539062 -25.09806641 81.40539062 -23.67578125 82.28125 C-22.37833984 83.03148437 -22.37833984 83.03148437 -21.0546875 83.796875 C-20.40628906 84.21453125 -19.75789063 84.6321875 -19.08984375 85.0625 C-15.2477516 86.44889793 -11.94002617 85.17216792 -8.30859375 83.6328125 C-7.42042969 83.15070313 -6.53226563 82.66859375 -5.6171875 82.171875 C-4.28880859 81.47191406 -4.28880859 81.47191406 -2.93359375 80.7578125 C4.70393337 75.55558914 8.88007253 69.14544061 13.0078125 60.984375 C13.78378784 59.46565796 13.78378784 59.46565796 14.57543945 57.91625977 C17.62251391 51.81298932 20.40516059 45.68464424 22.6328125 39.234375 C22.86427979 38.58299561 23.09574707 37.93161621 23.33422852 37.26049805 C25.43952219 30.60955263 25.60108411 23.72363061 25.9453125 16.796875 C24.6449707 16.36604614 24.6449707 16.36604614 23.31835938 15.92651367 C20.0676196 14.8486528 16.81735198 13.76939015 13.56738281 12.68920898 C12.1671757 12.22413789 10.76678869 11.75960801 9.36621094 11.2956543 C7.34000546 10.62434727 5.31442936 9.9511763 3.2890625 9.27734375 C2.63462158 9.06044891 1.98018066 8.84355408 1.3059082 8.62008667 C-2.05566391 7.49775568 -5.36406339 6.30282776 -8.6484375 4.97265625 C-15.2967057 2.67778386 -20.32686488 4.26571296 -26.69921875 6.5 Z " fill="#7ABCFD" transform="translate(115.0546875,197.203125)"/>
<path d="M0 0 C0.01981934 0.98395752 0.03963867 1.96791504 0.06005859 2.98168945 C0.13613987 6.63282839 0.224853 10.28357009 0.31738281 13.93432617 C0.35566221 15.51432451 0.39051697 17.09440969 0.421875 18.67456055 C0.46754876 20.94611645 0.52553784 23.21707509 0.5859375 25.48828125 C0.59748871 26.19463211 0.60903992 26.90098297 0.62094116 27.6287384 C0.73071048 31.27741393 0.92142364 32.88213546 3 36 C-0.46501398 38.37600959 -2.76288459 39.57258316 -7 39 C-7.66 38.34 -8.32 37.68 -9 37 C-9.99 37.66 -10.98 38.32 -12 39 C-16.19525606 39.81594481 -20.25269559 40.06760643 -23.98828125 37.78515625 C-27.24624254 34.48054158 -28.40115518 31.56129452 -28.625 26.9375 C-28.23993314 21.03612651 -25.73251724 17.9363428 -21.875 13.625 C-17.65694446 11.24088165 -13.73879295 11.66874457 -9 12 C-8.91995518 8.4780279 -8.95994298 5.38018531 -10 2 C-4.10714286 -1.34821429 -4.10714286 -1.34821429 0 0 Z " fill="#0D0D0D" transform="translate(456,213)"/>
<path d="M0 0 C0.01981934 0.9787207 0.03963867 1.95744141 0.06005859 2.96582031 C0.13624624 6.60393597 0.22494295 10.24165853 0.31738281 13.87939453 C0.35561829 15.45255765 0.39048066 17.02580658 0.421875 18.59912109 C0.46764422 20.86326723 0.52561761 23.12682547 0.5859375 25.390625 C0.59748871 26.09181458 0.60903992 26.79300415 0.62094116 27.51544189 C0.73039906 31.1533497 1.01844344 33.8990378 3 37 C-0.50776784 38.60355101 -3.14354879 39.22036864 -7 39 C-7.33 38.01 -7.66 37.02 -8 36 C-8.474375 36.495 -8.94875 36.99 -9.4375 37.5 C-13.23216537 39.72126753 -16.70472931 39.69031136 -21 39 C-24.1225042 37.20622099 -25.54716303 35.79785562 -27.3125 32.6875 C-28.49726406 28.0561496 -28.50024147 24.38955965 -26.875 19.875 C-24.66782217 16.49066067 -22.70468234 13.70474427 -19 12 C-15.29297651 11.59661866 -11.71209494 11.7027682 -8 12 C-8.66 8.7 -9.32 5.4 -10 2 C-4.10714286 -1.34821429 -4.10714286 -1.34821429 0 0 Z " fill="#0C0C0C" transform="translate(254,213)"/>
<path d="M0 0 C4.95 0 9.9 0 15 0 C13 4 13 4 12 5 C11.92755947 7.01964199 11.91622812 9.04167124 11.9375 11.0625 C11.94652344 12.16722656 11.95554688 13.27195313 11.96484375 14.41015625 C11.97644531 15.26480469 11.98804688 16.11945313 12 17 C12.53109375 16.45730469 13.0621875 15.91460937 13.609375 15.35546875 C14.66898438 14.28232422 14.66898438 14.28232422 15.75 13.1875 C16.44609375 12.47980469 17.1421875 11.77210938 17.859375 11.04296875 C19.81428645 9.17724121 21.80338553 7.56830358 24 6 C23.67 4.02 23.34 2.04 23 0 C26.96 0 30.92 0 35 0 C35 0.99 35 1.98 35 3 C33.28515625 4.53515625 33.28515625 4.53515625 31.0625 6.0625 C28.00721843 8.06958135 28.00721843 8.06958135 26 11 C26.75762441 13.31395684 26.75762441 13.31395684 27.984375 15.90234375 C28.42523438 16.87494141 28.86609375 17.84753906 29.3203125 18.84960938 C29.79210937 19.86861328 30.26390625 20.88761719 30.75 21.9375 C31.20632812 22.95263672 31.66265625 23.96777344 32.1328125 25.01367188 C34.3153372 30.2039403 34.3153372 30.2039403 37.65722656 34.62719727 C39 36 39 36 39 39 C34.38 39 29.76 39 25 39 C25.28875 37.948125 25.5775 36.89625 25.875 35.8125 C26.66264745 30.1148425 23.870182 25.71092684 21.34765625 20.7578125 C20 18 20 18 20 16 C14.32598007 19.74177516 14.32598007 19.74177516 11.3984375 25.5859375 C11.3599882 29.95634172 11.53157151 32.29735726 14 36 C14 36.99 14 37.98 14 39 C9.38 39 4.76 39 0 39 C1 35 1 35 2 33 C2.24487459 28.33791703 2.18520286 23.66778632 2.1875 19 C2.19974609 17.6903125 2.21199219 16.380625 2.22460938 15.03125 C2.22654297 13.7834375 2.22847656 12.535625 2.23046875 11.25 C2.23457764 10.10015625 2.23868652 8.9503125 2.24291992 7.765625 C2.28593969 4.85759039 2.28593969 4.85759039 0 3 C0 2.01 0 1.02 0 0 Z " fill="#060606" transform="translate(157,213)"/>
<path d="M0 0 C1.25425781 0.01804688 2.50851562 0.03609375 3.80078125 0.0546875 C5.22970703 0.08949219 5.22970703 0.08949219 6.6875 0.125 C9.08951504 4.32379794 8.84614149 7.36575541 8.6875 12.125 C5.80103833 10.94903413 4.48230999 9.89208161 2.375 7.5 C-0.18837611 4.7685412 -0.18837611 4.7685412 -4.0625 4.75 C-7.16109132 4.76645975 -7.16109132 4.76645975 -8.3125 6.125 C-8.81385199 8.49721956 -8.81385199 8.49721956 -8.3125 11.125 C-4.64779652 15.04244165 0.44582901 17.2234795 5.1640625 19.66015625 C7.4816189 21.00548698 9.08753706 21.98996749 10.6875 24.125 C11.61152251 28.57029748 11.25612505 32.17052224 8.9375 36.0625 C5.46422651 39.24633403 2.85064074 40.38396136 -1.859375 40.3203125 C-3.12587891 40.31064453 -3.12587891 40.31064453 -4.41796875 40.30078125 C-5.72701172 40.27564453 -5.72701172 40.27564453 -7.0625 40.25 C-7.95066406 40.24097656 -8.83882813 40.23195312 -9.75390625 40.22265625 C-11.94038058 40.19914577 -14.12630094 40.16628499 -16.3125 40.125 C-17.31746852 37.11009443 -17.41585303 35.08318308 -17.375 31.9375 C-17.36597656 31.03644531 -17.35695313 30.13539063 -17.34765625 29.20703125 C-17.33605469 28.51996094 -17.32445312 27.83289063 -17.3125 27.125 C-14.3125 28.125 -14.3125 28.125 -12.9375 30.5 C-11.02704421 33.58612089 -9.61776245 34.6645352 -6.3125 36.125 C-2.15754291 36.45274557 -2.15754291 36.45274557 1.6875 35.125 C2.4430432 32.3837435 2.4430432 32.3837435 1.6875 29.125 C-1.02941465 26.66683913 -4.13925165 24.93478152 -7.3125 23.125 C-8.79671032 22.25858281 -10.27631938 21.38420837 -11.75 20.5 C-12.38808594 20.13648438 -13.02617187 19.77296875 -13.68359375 19.3984375 C-16.52786503 17.17485851 -17.21899649 14.73945166 -17.75 11.25 C-17.14720979 6.94435565 -15.38616204 5.13035844 -12.3125 2.125 C-8.17305478 -0.04675119 -4.62680446 -0.08648233 0 0 Z " fill="#0B0B0B" transform="translate(284.3125,211.875)"/>
<path d="M0 0 C0.33 4.95 0.66 9.9 1 15 C1.99 14.34 2.98 13.68 4 13 C8.11152312 12.34881954 11.77084137 12.25603557 15.375 14.4375 C19.0839515 20.28623121 20.33399177 27.00358677 21.5703125 33.73828125 C21.96990916 35.84161275 22.48074256 37.92297024 23 40 C19.04 40 15.08 40 11 40 C11.33 38.68 11.66 37.36 12 36 C12.49372707 29.82841169 10.9509251 24.77148676 9 19 C6.08347826 18.83318891 6.08347826 18.83318891 3 19 C0.66219545 20.90717639 0.66219545 20.90717639 0.734375 24.1875 C0.73953125 25.445625 0.7446875 26.70375 0.75 28 C0.74484375 29.258125 0.7396875 30.51625 0.734375 31.8125 C0.66219545 35.09282361 0.66219545 35.09282361 3 37 C3 37.99 3 38.98 3 40 C-1.29 40 -5.58 40 -10 40 C-9 36 -9 36 -8 35 C-7.91224395 32.85441173 -7.89304781 30.70595579 -7.90234375 28.55859375 C-7.90556641 27.25341797 -7.90878906 25.94824219 -7.91210938 24.60351562 C-7.92046599 23.2148431 -7.92893095 21.82617123 -7.9375 20.4375 C-7.94251334 19.04492344 -7.94707653 17.65234519 -7.95117188 16.25976562 C-7.96300566 12.8398013 -7.9794912 9.41992156 -8 6 C-8.66 6 -9.32 6 -10 6 C-10 5.01 -10 4.02 -10 3 C-3.375 0 -3.375 0 0 0 Z " fill="#060606" transform="translate(316,212)"/>
<path d="M0 0 C2.97 0 5.94 0 9 0 C9 4.29 9 8.58 9 13 C13.29 13 17.58 13 22 13 C22 15.97 22 18.94 22 22 C17.71 22 13.42 22 9 22 C9 26.29 9 30.58 9 35 C6.03 35 3.06 35 0 35 C0 30.71 0 26.42 0 22 C-4.29 22 -8.58 22 -13 22 C-13 19.03 -13 16.06 -13 13 C-8.71 13 -4.42 13 0 13 C0 8.71 0 4.42 0 0 Z " fill="#FBFDFE" transform="translate(96,223)"/>
<path d="M0 0 C2.90655157 1.34531816 3.89281098 2.43720254 6 5 C6.375 7.8125 6.375 7.8125 6 10 C0.74815169 12.71970716 -4.43067543 15.01095551 -10 17 C-8.5905727 19.24905348 -8.5905727 19.24905348 -6 21 C-1.22504421 21.25408022 2.82589239 20.29575919 7 18 C6.80504041 21.50927259 6.20351779 22.79648221 3.6875 25.3125 C-1.05579197 28.13314693 -6.70316152 27.7428946 -12 27 C-15.74432023 24.90318067 -17.37050321 22.89112596 -19 19 C-19.70857092 14.00704678 -19.55152691 10.08335642 -17.25 5.5625 C-12.06347483 -0.34437589 -7.72029455 -1.19202239 0 0 Z " fill="#0A0A0A" transform="translate(389,225)"/>
<path d="M0 0 C0.02505615 1.03930664 0.0501123 2.07861328 0.07592773 3.14941406 C0.17020926 7.01102703 0.27037908 10.87246883 0.37231445 14.73388672 C0.41558489 16.40409334 0.45726549 18.07434194 0.49731445 19.74462891 C0.55520851 22.14758955 0.6188474 24.55034041 0.68359375 26.953125 C0.70030624 27.69806213 0.71701874 28.44299927 0.73423767 29.21051025 C0.83309323 32.68205988 1.15166747 35.60666987 2 39 C-1.96 39 -5.92 39 -10 39 C-9.67 37.35 -9.34 35.7 -9 34 C-8.9092566 31.84390248 -8.86935806 29.68534889 -8.8671875 27.52734375 C-8.86589844 26.29822266 -8.86460937 25.06910156 -8.86328125 23.80273438 C-8.86714844 22.52720703 -8.87101562 21.25167969 -8.875 19.9375 C-8.87113281 18.65810547 -8.86726563 17.37871094 -8.86328125 16.06054688 C-8.86457031 14.83271484 -8.86585938 13.60488281 -8.8671875 12.33984375 C-8.86831543 11.21956787 -8.86944336 10.09929199 -8.87060547 8.94506836 C-8.98053856 6.44294979 -9.26987595 4.3814225 -10 2 C-4.10714286 -1.34821429 -4.10714286 -1.34821429 0 0 Z " fill="#0C0C0C" transform="translate(416,213)"/>
<path d="M0 0 C0.01981934 0.65597168 0.03963867 1.31194336 0.06005859 1.98779297 C0.15512507 4.95061069 0.26487752 7.91270532 0.375 10.875 C0.4059375 11.90753906 0.436875 12.94007813 0.46875 14.00390625 C0.50742188 14.99003906 0.54609375 15.97617188 0.5859375 16.9921875 C0.6173584 17.90339355 0.6487793 18.81459961 0.68115234 19.75341797 C0.79882511 22.19931186 0.79882511 22.19931186 3 24 C3 24.99 3 25.98 3 27 C-1.29 27 -5.58 27 -10 27 C-9.67 25.68 -9.34 24.36 -9 23 C-8.93005455 20.15741677 -8.90614655 17.34110516 -8.9375 14.5 C-8.94201172 13.74074219 -8.94652344 12.98148438 -8.95117188 12.19921875 C-8.96383827 10.13278722 -8.98169537 8.06638928 -9 6 C-9 4.68 -9 3.36 -9 2 C-5.83390538 0.12379578 -3.64167599 -0.09662822 0 0 Z " fill="#0D0D0D" transform="translate(214,225)"/>
<path d="M0 0 C0.02505615 0.67579102 0.0501123 1.35158203 0.07592773 2.04785156 C0.19210742 5.1154168 0.31473437 8.18269158 0.4375 11.25 C0.47681641 12.31347656 0.51613281 13.37695312 0.55664062 14.47265625 C0.61948242 16.00986328 0.61948242 16.00986328 0.68359375 17.578125 C0.72025146 18.52075195 0.75690918 19.46337891 0.79467773 20.43457031 C0.95079003 23.26886213 0.95079003 23.26886213 2 27 C-1.96 27 -5.92 27 -10 27 C-9.67 25.35 -9.34 23.7 -9 22 C-8.90684095 19.30112742 -8.86016517 16.63496594 -8.875 13.9375 C-8.87113281 13.23044922 -8.86726563 12.52339844 -8.86328125 11.79492188 C-8.86967349 8.39105469 -8.93546188 5.25275537 -10 2 C-6.57602277 -0.10706291 -3.96057533 -0.08680713 0 0 Z " fill="#0C0C0C" transform="translate(358,225)"/>
<path d="M0 0 C2.05797957 2.13972175 2.9231222 3.48417476 3.36328125 6.4375 C3.34652344 7.283125 3.32976562 8.12875 3.3125 9 C3.30863281 9.845625 3.30476563 10.69125 3.30078125 11.5625 C2.98576274 14.11537729 2.28396996 15.79013935 1 18 C-2.3125 18.25 -2.3125 18.25 -6 18 C-9.15990387 14.94542626 -9.95004855 11.91577657 -10.1875 7.5625 C-10.01557545 4.2959336 -9.8292413 2.64223744 -8 0 C-5.03475663 -1.48262169 -3.14877613 -0.83538959 0 0 Z " fill="#F5F5F5" transform="translate(445,229)"/>
<path d="M0 0 C2.5625 0.5 2.5625 0.5 4.875 2.3125 C7.31274372 6.91712703 7.24417831 11.37948619 6.5625 16.5 C5.9025 17.49 5.2425 18.48 4.5625 19.5 C1.125 19.9375 1.125 19.9375 -2.4375 19.5 C-4.77613382 17.23125638 -5.39179103 15.83385473 -5.8359375 12.58984375 C-5.82820312 11.54957031 -5.82046875 10.50929687 -5.8125 9.4375 C-5.82023438 8.39464844 -5.82796875 7.35179687 -5.8359375 6.27734375 C-5.4375 3.5 -5.4375 3.5 -4.06640625 1.66015625 C-2.4375 0.5 -2.4375 0.5 0 0 Z " fill="#F8F8F8" transform="translate(239.4375,227.5)"/>
<path d="M0 0 C3.0625 0.3125 3.0625 0.3125 4.9375 1.5 C6.48479478 3.99286381 6.56655716 5.43217335 6.0625 8.3125 C4.375 10.1875 4.375 10.1875 2.0625 11.3125 C-1.30786311 11.07175978 -2.52548021 10.72451979 -4.9375 8.3125 C-5.1875 5.3125 -5.1875 5.3125 -4.9375 2.3125 C-2.9375 0.3125 -2.9375 0.3125 0 0 Z " fill="#FF5672" transform="translate(138.9375,284.6875)"/>
<path d="M0 0 C2 3 2 3 2 6 C0.73160474 6.50615298 -0.53983102 7.00469099 -1.8125 7.5 C-2.52019531 7.7784375 -3.22789062 8.056875 -3.95703125 8.34375 C-6 9 -6 9 -9 9 C-9.36 2.64 -9.36 2.64 -7.875 0 C-4.98192987 -1.54297074 -3.06359725 -0.91256088 0 0 Z " fill="#F2F2F2" transform="translate(386,229)"/>
<path d="M0 0 C4.55555556 0.55555556 4.55555556 0.55555556 6 2 C6.1875 4.4375 6.1875 4.4375 6 7 C5.34 7.66 4.68 8.32 4 9 C0.70285207 8.67028521 -0.6226839 8.3773161 -3 6 C-2.63318342 3.06546739 -2.13562754 2.13562754 0 0 Z " fill="#FF5A75" transform="translate(130,179)"/>
<path d="M0 0 C2.5 0.25 2.5 0.25 4.5 2.25 C3.94444444 6.80555556 3.94444444 6.80555556 2.5 8.25 C0.50041636 8.29080783 -1.50045254 8.29254356 -3.5 8.25 C-4.125 5.375 -4.125 5.375 -4.5 2.25 C-2.5 0.25 -2.5 0.25 0 0 Z " fill="#FF5773" transform="translate(33.5,238.75)"/>
<path d="M0 0 C2.5625 0.1875 2.5625 0.1875 4.5625 2.1875 C4.00694444 6.74305556 4.00694444 6.74305556 2.5625 8.1875 C0.125 8.375 0.125 8.375 -2.4375 8.1875 C-3.0975 7.5275 -3.7575 6.8675 -4.4375 6.1875 C-3.71780303 0.28598485 -3.71780303 0.28598485 0 0 Z " fill="#FF5672" transform="translate(60.4375,284.8125)"/>
<path d="M0 0 C0.6875 2.3125 0.6875 2.3125 1 5 C-0.125 6.8125 -0.125 6.8125 -2 8 C-4.625 8.25 -4.625 8.25 -7 8 C-8 7 -8 7 -8.25 4.5625 C-8.1675 3.716875 -8.085 2.87125 -8 2 C-4.77208445 -0.1519437 -3.71599191 -0.20086443 0 0 Z " fill="#0C0C0C" transform="translate(357,213)"/>
<path d="M0 0 C1 1 1 1 1.25 3.4375 C1.1675 4.283125 1.085 5.12875 1 6 C-2.22791555 8.1519437 -3.28400809 8.20086443 -7 8 C-7.6875 5.6875 -7.6875 5.6875 -8 3 C-5.92409036 -0.34452109 -3.73927021 -0.39360739 0 0 Z " fill="#0C0C0C" transform="translate(213,213)"/>
</svg>
